<svg width="25" height="24" viewBox="0 0 25 24" fill="none" xmlns="http://www.w3.org/2000/svg">
<path d="M12.6667 2V4M5.59685 4.92993L7.00685 6.33993M20.6667 12H22.6667M19.7368 4.92993L18.3268 6.33993M16.6136 12.6501C16.7367 11.9046 16.6461 11.1395 16.3523 10.4433C16.0586 9.74717 15.5736 9.14847 14.9537 8.71654C14.3337 8.28461 13.6041 8.03711 12.8493 8.00269C12.0945 7.96827 11.3453 8.14835 10.6886 8.52206M13.6666 22H7.66663C6.7206 21.9998 5.79404 21.7312 4.99455 21.2255C4.19507 20.7197 3.55548 19.9975 3.15006 19.1427C2.74464 18.288 2.59003 17.3358 2.70419 16.3966C2.81835 15.4575 3.19659 14.5701 3.79499 13.8373C4.39339 13.1046 5.18738 12.5567 6.08475 12.2572C6.98212 11.9577 7.94605 11.9189 8.86457 12.1454C9.7831 12.3718 10.6185 12.8542 11.2738 13.5366C11.9291 14.2189 12.3774 15.0731 12.5666 16H13.6666C14.4623 16 15.2253 16.3161 15.788 16.8787C16.3506 17.4413 16.6666 18.2044 16.6666 19C16.6666 19.7956 16.3506 20.5587 15.788 21.1213C15.2253 21.6839 14.4623 22 13.6666 22Z" stroke="#F9FAFB" stroke-width="2" stroke-linecap="round" stroke-linejoin="round"/>
</svg>
