<svg width="16" height="17" viewBox="0 0 16 17" fill="none" xmlns="http://www.w3.org/2000/svg">
<g clip-path="url(#clip0_71_96)">
<path d="M12.7265 7.10932L12.2913 4.4461C12.2705 4.31848 12.1505 4.23191 12.0225 4.2528C11.8949 4.27365 11.8083 4.394 11.8292 4.52162L12.2175 6.89738C10.2367 6.50594 8.1594 6.40539 6.04225 6.59931C5.91347 6.61111 5.81863 6.72506 5.83043 6.85383C5.84223 6.98258 5.95643 7.07751 6.08492 7.06565C8.17445 6.87428 10.2232 6.97524 12.1743 7.36584C12.5045 7.43193 12.7441 7.7257 12.7441 8.06435V8.80316C12.7441 9.19626 12.4243 9.51606 12.0312 9.51606H3.96883C3.57573 9.51606 3.25593 9.19626 3.25593 8.80316V8.07896C3.25593 7.73534 3.5009 7.44049 3.83834 7.37786C4.25416 7.30069 4.67758 7.23314 5.0968 7.17707C5.22496 7.15993 5.31496 7.04214 5.29782 6.91396C5.28068 6.78578 5.16283 6.69571 5.03471 6.71295C4.60768 6.77005 4.17643 6.83885 3.75289 6.91746L4.41128 2.86905C4.59045 1.76765 5.53033 0.968273 6.64616 0.968273H9.32428C10.4393 0.968273 11.379 1.76693 11.5588 2.86734L11.6671 3.52951C11.6879 3.65709 11.8081 3.7436 11.9359 3.72281C12.0635 3.70195 12.1501 3.58158 12.1292 3.45396L12.0209 2.79182C11.9165 2.15269 11.5872 1.56975 11.0938 1.15037C10.6003 0.730952 9.97187 0.5 9.32428 0.5H6.64616C5.99817 0.5 5.36946 0.731202 4.87587 1.15102C4.38228 1.57085 4.05315 2.15428 3.94913 2.79385L3.24092 7.14838C2.96254 7.36647 2.78766 7.70531 2.78766 8.07893V8.80313C2.78766 9.45443 3.31752 9.9843 3.96883 9.9843H4.14581L3.23283 16.0013C3.21385 16.1264 3.25025 16.2531 3.3327 16.3491C3.41514 16.445 3.53502 16.5 3.66152 16.5H3.89406C4.08699 16.5 4.25385 16.3759 4.30936 16.1911L5.76334 11.3513L6.29717 11.0206H9.70276L10.2366 11.3513L10.4726 12.1368C10.503 12.2382 10.596 12.3037 10.6967 12.3037C10.719 12.3037 10.7417 12.3004 10.7642 12.2937C10.888 12.2565 10.9583 12.1259 10.921 12.0021L10.3148 9.9843H11.3805L12.2981 16.0317H12.1316L11.2081 12.9577C11.171 12.8339 11.0404 12.7637 10.9165 12.8009C10.7927 12.8381 10.7224 12.9686 10.7597 13.0925L11.6906 16.1912C11.7461 16.3759 11.9129 16.5 12.1059 16.5H12.3384C12.4649 16.5 12.5848 16.445 12.6672 16.3491C12.7497 16.2532 12.7861 16.1264 12.7671 16.0014L11.8541 9.98433H12.0311C12.6824 9.98433 13.2123 9.45446 13.2123 8.80316V8.06435C13.2123 7.67771 13.0234 7.32638 12.7265 7.10932ZM3.86831 16.0317H3.70182L4.61942 9.9843H5.68511L3.86831 16.0317ZM10.0333 10.6745L9.94452 10.6195C9.87356 10.5755 9.79196 10.5523 9.70851 10.5523H6.29146C6.20802 10.5523 6.12644 10.5755 6.05539 10.6195L5.96667 10.6745L6.17402 9.98427H9.82589L10.0333 10.6745Z" fill="white"/>
</g>
<defs>
<clipPath id="clip0_71_96">
<rect width="16" height="16" fill="white" transform="translate(0 0.5)"/>
</clipPath>
</defs>
</svg>
