<svg width="74" height="75" viewBox="0 0 74 75" fill="none" xmlns="http://www.w3.org/2000/svg">
<g filter="url(#filter0_di_40_405)">
<rect x="61" y="61.5" width="50" height="50" rx="10.5634" transform="rotate(-180 61 61.5)" fill="black" fill-opacity="0.5" shape-rendering="crispEdges"/>
<path d="M26.1 42.2143H40.4C40.6917 42.2143 40.9715 42.3347 41.1778 42.549C41.3841 42.7633 41.5 43.054 41.5 43.3571C41.5 43.6602 41.3841 43.9509 41.1778 44.1653C40.9715 44.3796 40.6917 44.5 40.4 44.5L26.1 44.5C25.8083 44.5 25.5285 44.3796 25.3222 44.1653C25.1159 43.9509 25 43.6602 25 43.3571C25 43.054 25.1159 42.7633 25.3222 42.549C25.5285 42.3347 25.8083 42.2143 26.1 42.2143ZM25 36.5C25 36.8031 25.1159 37.0938 25.3222 37.3081C25.5285 37.5224 25.8083 37.6429 26.1 37.6429H45.9C46.1917 37.6429 46.4715 37.5224 46.6778 37.3081C46.8841 37.0938 47 36.8031 47 36.5C47 36.1969 46.8841 35.9062 46.6778 35.6919C46.4715 35.4776 46.1917 35.3571 45.9 35.3571H26.1C25.8083 35.3571 25.5285 35.4776 25.3222 35.6919C25.1159 35.9062 25 36.1969 25 36.5ZM25 29.6429C25 29.946 25.1159 30.2367 25.3222 30.451C25.5285 30.6653 25.8083 30.7857 26.1 30.7857H36C36.2917 30.7857 36.5715 30.6653 36.7778 30.451C36.9841 30.2367 37.1 29.946 37.1 29.6429C37.1 29.3398 36.9841 29.0491 36.7778 28.8347C36.5715 28.6204 36.2917 28.5 36 28.5L26.1 28.5C25.8083 28.5 25.5285 28.6204 25.3222 28.8347C25.1159 29.0491 25 29.3398 25 29.6429Z" fill="white"/>
</g>
<defs>
<filter id="filter0_di_40_405" x="-69.9859" y="-69.4859" width="211.972" height="211.972" filterUnits="userSpaceOnUse" color-interpolation-filters="sRGB">
<feFlood flood-opacity="0" result="BackgroundImageFix"/>
<feColorMatrix in="SourceAlpha" type="matrix" values="0 0 0 0 0 0 0 0 0 0 0 0 0 0 0 0 0 0 127 0" result="hardAlpha"/>
<feOffset dx="1" dy="1"/>
<feGaussianBlur stdDeviation="6"/>
<feComposite in2="hardAlpha" operator="out"/>
<feColorMatrix type="matrix" values="0 0 0 0 1 0 0 0 0 1 0 0 0 0 1 0 0 0 0.1 0"/>
<feBlend mode="normal" in2="BackgroundImageFix" result="effect1_dropShadow_40_405"/>
<feBlend mode="normal" in="SourceGraphic" in2="effect1_dropShadow_40_405" result="shape"/>
<feColorMatrix in="SourceAlpha" type="matrix" values="0 0 0 0 0 0 0 0 0 0 0 0 0 0 0 0 0 0 127 0" result="hardAlpha"/>
<feOffset/>
<feGaussianBlur stdDeviation="0.5"/>
<feComposite in2="hardAlpha" operator="arithmetic" k2="-1" k3="1"/>
<feColorMatrix type="matrix" values="0 0 0 0 1 0 0 0 0 1 0 0 0 0 1 0 0 0 0.1 0"/>
<feBlend mode="normal" in2="shape" result="effect2_innerShadow_40_405"/>
</filter>
</defs>
</svg>
