<svg width="60" height="63" viewBox="0 0 60 63" fill="none" xmlns="http://www.w3.org/2000/svg">
<g filter="url(#filter0_dii_40_407)">
<rect x="55" y="50.5" width="50" height="50" rx="12" transform="rotate(-180 55 50.5)" fill="black" fill-opacity="0.5" shape-rendering="crispEdges"/>
<path d="M36.7492 23.566C36.3352 23.566 35.9992 23.2257 35.9992 22.8064C35.9992 19.697 33.6085 17.039 30.556 16.7549C27.4964 16.4696 24.6573 18.6385 24.0993 21.6931C24.0325 22.0569 23.9988 22.4315 23.9988 22.8064C23.9988 23.2257 23.6628 23.566 23.2488 23.566C22.8348 23.566 22.4988 23.2257 22.4988 22.8064C22.4988 22.3388 22.5408 21.8712 22.624 21.4165C23.3215 17.5981 26.8638 14.8838 30.6937 15.2416C34.51 15.5971 37.4992 18.9199 37.4992 22.8064C37.4992 23.2261 37.1635 23.566 36.7492 23.566Z" fill="white"/>
<path d="M36.7488 32.682C36.3348 32.682 35.9988 32.3417 35.9988 31.9223C35.9988 31.503 36.3348 31.1627 36.7488 31.1627C37.4868 31.1627 37.9428 30.651 38.1232 30.1721C38.3028 29.6957 38.2991 29.009 37.749 28.5107C37.4403 28.2311 37.4133 27.7506 37.6901 27.438C37.9657 27.1254 38.4405 27.0984 38.7487 27.3784C39.6697 28.2125 39.9742 29.5222 39.5242 30.7141C39.0735 31.9094 37.9841 32.682 36.7488 32.682Z" fill="white"/>
<path d="M36.7488 25.3072C36.3348 25.3072 35.9988 24.9669 35.9988 24.5476V22.8068C35.9988 22.3874 36.3348 22.0471 36.7488 22.0471C37.1628 22.0471 37.4988 22.3874 37.4988 22.8068V24.5476C37.4988 24.9669 37.1632 25.3072 36.7488 25.3072Z" fill="white"/>
<path d="M38.2485 28.7044C38.0703 28.7044 37.8918 28.6406 37.749 28.5111C36.6367 27.5034 35.9988 26.0589 35.9988 24.5475C35.9988 24.1282 36.3348 23.7878 36.7488 23.7878C37.1628 23.7878 37.4988 24.1282 37.4988 24.5475C37.4988 25.627 37.9545 26.659 38.7487 27.3788C39.0573 27.6583 39.0843 28.1388 38.8076 28.4514C38.6598 28.6189 38.4547 28.7044 38.2485 28.7044Z" fill="white"/>
<path d="M23.2488 25.3072C22.8348 25.3072 22.4988 24.9669 22.4988 24.5476V22.8068C22.4988 22.3874 22.8348 22.0471 23.2488 22.0471C23.6628 22.0471 23.9988 22.3874 23.9988 22.8068V24.5476C23.9988 24.9669 23.6632 25.3072 23.2488 25.3072Z" fill="white"/>
<path d="M21.7493 28.7043C21.5431 28.7043 21.3379 28.6188 21.1902 28.4509C20.9138 28.1383 20.9404 27.6578 21.2491 27.3783C22.0433 26.6585 22.4989 25.6269 22.4989 24.547C22.4989 24.1277 22.8349 23.7874 23.2489 23.7874C23.6629 23.7874 23.9989 24.1277 23.9989 24.547C23.9989 26.0584 23.3611 27.5029 22.2488 28.5106C22.1059 28.6405 21.9274 28.7043 21.7493 28.7043Z" fill="white"/>
<path d="M29.9988 36.4802C27.5595 36.4802 25.4988 34.3931 25.4988 31.9223C25.4988 31.5029 25.8348 31.1626 26.2488 31.1626C26.6628 31.1626 26.9988 31.5029 26.9988 31.9223C26.9988 33.5692 28.3725 34.9609 29.9988 34.9609C31.6252 34.9609 32.9988 33.5692 32.9988 31.9223C32.9988 31.5029 33.3348 31.1626 33.7488 31.1626C34.1628 31.1626 34.4988 31.5029 34.4988 31.9223C34.4988 34.3931 32.4382 36.4802 29.9988 36.4802Z" fill="white"/>
<path d="M23.2489 32.6819C22.0136 32.6819 20.925 31.9112 20.4754 30.7185C20.0246 29.5236 20.3284 28.2124 21.249 27.3787C21.558 27.0991 22.032 27.1257 22.308 27.4387C22.584 27.7517 22.5574 28.2314 22.2488 28.5113C21.699 29.0093 21.696 29.6983 21.8764 30.1769C22.056 30.6536 22.5113 31.1633 23.2489 31.1633C23.6629 31.1633 23.9989 31.5037 23.9989 31.923C23.9989 32.3423 23.6633 32.6819 23.2489 32.6819Z" fill="white"/>
<path d="M36.7488 32.6819H23.2488C22.8348 32.6819 22.4988 32.3416 22.4988 31.9223C22.4988 31.5029 22.8348 31.1626 23.2488 31.1626H36.7488C37.1628 31.1626 37.4988 31.5029 37.4988 31.9223C37.4988 32.3416 37.1632 32.6819 36.7488 32.6819Z" fill="white"/>
<ellipse cx="37.499" cy="16.3149" rx="3.27273" ry="3.3149" fill="#E51414"/>
</g>
<defs>
<filter id="filter0_dii_40_407" x="-87" y="-91.5" width="234" height="234" filterUnits="userSpaceOnUse" color-interpolation-filters="sRGB">
<feFlood flood-opacity="0" result="BackgroundImageFix"/>
<feColorMatrix in="SourceAlpha" type="matrix" values="0 0 0 0 0 0 0 0 0 0 0 0 0 0 0 0 0 0 127 0" result="hardAlpha"/>
<feOffset dy="7"/>
<feGaussianBlur stdDeviation="2.5"/>
<feComposite in2="hardAlpha" operator="out"/>
<feColorMatrix type="matrix" values="0 0 0 0 1 0 0 0 0 1 0 0 0 0 1 0 0 0 0.05 0"/>
<feBlend mode="normal" in2="BackgroundImageFix" result="effect1_dropShadow_40_407"/>
<feBlend mode="normal" in="SourceGraphic" in2="effect1_dropShadow_40_407" result="shape"/>
<feColorMatrix in="SourceAlpha" type="matrix" values="0 0 0 0 0 0 0 0 0 0 0 0 0 0 0 0 0 0 127 0" result="hardAlpha"/>
<feOffset dy="1"/>
<feGaussianBlur stdDeviation="0.5"/>
<feComposite in2="hardAlpha" operator="arithmetic" k2="-1" k3="1"/>
<feColorMatrix type="matrix" values="0 0 0 0 1 0 0 0 0 1 0 0 0 0 1 0 0 0 0.25 0"/>
<feBlend mode="normal" in2="shape" result="effect2_innerShadow_40_407"/>
<feColorMatrix in="SourceAlpha" type="matrix" values="0 0 0 0 0 0 0 0 0 0 0 0 0 0 0 0 0 0 127 0" result="hardAlpha"/>
<feOffset dy="1"/>
<feGaussianBlur stdDeviation="0.5"/>
<feComposite in2="hardAlpha" operator="arithmetic" k2="-1" k3="1"/>
<feColorMatrix type="matrix" values="0 0 0 0 1 0 0 0 0 1 0 0 0 0 1 0 0 0 0.1 0"/>
<feBlend mode="normal" in2="effect2_innerShadow_40_407" result="effect3_innerShadow_40_407"/>
</filter>
</defs>
</svg>
